# xmcd CD database file
#
# Track frame offsets:
#	150
#	17444
#	32637
#	50853
#	69233
#	87072
#	107993
#	127781
#	145796
#	165894
#	185386
#	215925
#	246884
#
# Disc length: 3579 seconds
#
# Revision: 7
# Processed by: cddbd v1.5.2PL0 Copyright (c) Steve Scherf et al.
# Submitted via: FreeDB 13.2
#
DISCID=aa0df90d
DTITLE=TV-2 - Amerika
DYEAR=2001
DGENRE=Pop
TTITLE0=Granvoksen mand
TTITLE1=Sommerdag ved stranden
TTITLE2=Hallo hallo
TTITLE3=Lad mig blive din
TTITLE4=Gør det selv, selv
TTITLE5=Vild tid
TTITLE6=Et sted derude
TTITLE7=Tak for i aften
TTITLE8=Softwarefejl
TTITLE9=Fald min engel
TTITLE10=Amerika
TTITLE11=De er meget interesserede i
TTITLE12=Video: Hallo hallo
EXTD=Recordnumber Pladeselskabet, EMI 5311872\nYEAR: 2001\nRecorded 2000 in H
EXTD=ave a Cigar, Tambourine, and mixed in Medley.
EXTT0=
EXTT1=
EXTT2=
EXTT3=
EXTT4=
EXTT5=
EXTT6=
EXTT7=
EXTT8=
EXTT9=
EXTT10=
EXTT11=
EXTT12=
PLAYORDER=
